<?xml version="1.0" encoding="UTF-8"?>
<svg xmlns="http://www.w3.org/2000/svg" viewBox="0 0 246.895 44.683">
  <defs>
    <clipPath id="a">
      <path fill="#fff" d="M0 0h246.895v44.683H0z" data-name="Rectangle 90"></path>
    </clipPath>
  </defs>
  <g data-name="Groupe 211">
    <g clip-path="url(#a)" data-name="Groupe 206">
      <path fill="#9d8552" d="M0 21.424a17.188 17.188 0 0 0 1.83.076h15.977a12.237 12.237 0 0 0 1.792-.076v5.948H18.34a4.733 4.733 0 0 0-1.087-3.432 4.913 4.913 0 0 0-3.6-1.106h-.763a.438.438 0 0 0-.458.419v18.875q0 .839.763.839l2.021-.076v1.411H4.385v-1.411l2.059.076a.607.607 0 0 0 .534-.286 1.173 1.173 0 0 0 .191-.667V23.292a.4.4 0 0 0-.458-.458h-.687A4.984 4.984 0 0 0 2.4 23.941a4.681 4.681 0 0 0-1.1 3.431H0Z" data-name="Tracé 73"></path>
      <path fill="#9d8552" d="M40.379 43.006v1.3h-8.694v-1.3l1.449.076a.644.644 0 0 0 .5-.724v-9.227a8.446 8.446 0 0 0-.324-2.821 1.4 1.4 0 0 0-1.468-.8 2.87 2.87 0 0 0-1.926.839 6.137 6.137 0 0 0-1.544 2.478 11.266 11.266 0 0 0-.61 3.927v5.601q0 .724.5.724l1.487-.076v1.3h-8.74v-1.3l1.258.076a.644.644 0 0 0 .5-.724V18.413q0-.648-.5-.763l-1.258.076v-1.258h6.749v15.1a6.665 6.665 0 0 1 2.345-2.841 6.252 6.252 0 0 1 3.565-1.01 4.841 4.841 0 0 1 3.775 1.315 6.074 6.074 0 0 1 1.182 4.138v9.185q0 .724.5.724Z" data-name="Tracé 74"></path>
      <path fill="#9d8552" d="M47.776 30.709a10.828 10.828 0 0 0-.763 4.4h5.071a.658.658 0 0 0 .572-.267 1.823 1.823 0 0 0 .191-.992 8.124 8.124 0 0 0-.629-3.66 2.142 2.142 0 0 0-2.04-1.181 2.52 2.52 0 0 0-2.4 1.7m8.062-1.106a6.977 6.977 0 0 1 2.116 5.357v1.411H46.975a8.678 8.678 0 0 0 1.2 5 4.2 4.2 0 0 0 3.6 1.753 5.3 5.3 0 0 0 3.088-.9 5.5 5.5 0 0 0 1.906-2.192l1.03.724a6.247 6.247 0 0 1-2.8 2.9 9.712 9.712 0 0 1-4.633 1.029q-4.538 0-6.635-2.058t-2.1-6.368q0-4.384 2.173-6.462t6.482-2.078a7.934 7.934 0 0 1 5.554 1.884" data-name="Tracé 75"></path>
      <path fill="#9d8552" d="M61.58 36.565a8.032 8.032 0 0 0 2.154 5.033 6.084 6.084 0 0 0 4.4 1.716 4.274 4.274 0 0 0 3.069-1.068 3.707 3.707 0 0 0 1.125-2.821q0-2.669-3.622-4.08l-3.737-1.563q-4.344-1.795-4.344-5.917a6.6 6.6 0 0 1 .877-3.355 6.3 6.3 0 0 1 2.631-2.441 9.139 9.139 0 0 1 4.271-.914 10.223 10.223 0 0 1 2.135.191 15.265 15.265 0 0 1 1.754.5q.877.305 1.258.419a3.514 3.514 0 0 0 1.144.228 3.171 3.171 0 0 0 1.068-.152 26.01 26.01 0 0 0-.114 2.9q0 1.106.038 1.6a3.414 3.414 0 0 0 .191.916h-1.3a4.93 4.93 0 0 0-1.621-3.833 5.67 5.67 0 0 0-3.946-1.467 4.649 4.649 0 0 0-3.012.953 3.036 3.036 0 0 0-1.182 2.478 2.785 2.785 0 0 0 .782 1.926 6.745 6.745 0 0 0 2.5 1.545l3.241 1.372a11.977 11.977 0 0 1 4.251 2.765 5.684 5.684 0 0 1 1.277 3.87 7.322 7.322 0 0 1-.953 3.717 6.746 6.746 0 0 1-2.822 2.632 9.731 9.731 0 0 1-4.537.972 14.716 14.716 0 0 1-3.622-.5 14.287 14.287 0 0 0-2.974-.572 7.152 7.152 0 0 0-.82.057 2.32 2.32 0 0 0-.629.133 18.61 18.61 0 0 0 .153-2.936q0-1.523-.076-2.821t-.229-1.373Z" data-name="Tracé 76"></path>
      <path fill="#9d8552" d="M84.704 41.729a2.533 2.533 0 0 0 2.459 1.621 2.5 2.5 0 0 0 2.44-1.6 14.642 14.642 0 0 0 .724-5.491 15.264 15.264 0 0 0-.724-5.606 2.5 2.5 0 0 0-2.44-1.639 2.533 2.533 0 0 0-2.459 1.639 14.89 14.89 0 0 0-.744 5.606 14.3 14.3 0 0 0 .744 5.472m-3.946-11.839q2.135-2.173 6.406-2.173 4.309 0 6.406 2.173t2.1 6.291q0 8.5-8.5 8.5-4.271 0-6.406-2.173t-2.135-6.329q0-4.118 2.135-6.291" data-name="Tracé 77"></path>
      <path fill="#9d8552" d="M109.24 28.25a5.857 5.857 0 0 1 2.383 1.448 2.9 2.9 0 0 1 .857 2.022 2.392 2.392 0 0 1-.629 1.678 2.286 2.286 0 0 1-1.773.686 2.457 2.457 0 0 1-1.505-.438 1.491 1.491 0 0 1-.592-1.278 2.568 2.568 0 0 1 .153-.8 1.858 1.858 0 0 0 .191-.839 1.435 1.435 0 0 0-.667-1.277 2.965 2.965 0 0 0-1.659-.438 2.838 2.838 0 0 0-2.555 1.544 10.933 10.933 0 0 0-.915 5.243q0 4.118 1.125 5.8a3.543 3.543 0 0 0 3.108 1.678 4.99 4.99 0 0 0 2.841-.858 5.392 5.392 0 0 0 1.964-2.8l1.182.571q-1.64 4.5-6.9 4.5a9.178 9.178 0 0 1-6.158-2.058q-2.421-2.059-2.421-6.291t2.364-6.425a8.727 8.727 0 0 1 6.177-2.192 10.354 10.354 0 0 1 3.432.534" data-name="Tracé 78"></path>
      <path fill="#9d8552" d="M120.354 19.899a2.083 2.083 0 0 1 .82 1.716 2.119 2.119 0 0 1-.82 1.754 3.778 3.778 0 0 1-4.232 0 2.115 2.115 0 0 1-.82-1.754 2.079 2.079 0 0 1 .82-1.716 3.778 3.778 0 0 1 4.232 0m.477 22.459q0 .763.5.724l1.258-.076v1.3h-8.5v-1.3l1.258.076h.076q.419 0 .42-.724V30.042q0-.648-.458-.762l-1.259.076v-1.259h6.711Z" data-name="Tracé 79"></path>
      <path fill="#9d8552" d="M133.014 41.233a4.86 4.86 0 0 0 1.049-2.65v-2.517a6.191 6.191 0 0 0-3.775.916 3.255 3.255 0 0 0-1.182 2.745q0 2.518 1.868 2.517a2.6 2.6 0 0 0 2.04-1.01m7.8 1.773v1.3h-6.94a9.234 9.234 0 0 0 .153-1.411l.038-1.029a5.79 5.79 0 0 1-5.262 2.631 5.368 5.368 0 0 1-3.641-1.087 4.057 4.057 0 0 1-1.239-3.227 4.393 4.393 0 0 1 2.441-4.118q2.439-1.334 7.7-1.334v-2.669a4.281 4.281 0 0 0-.5-2.25 2.247 2.247 0 0 0-2.059-.8 3 3 0 0 0-1.887.457 1.39 1.39 0 0 0-.553 1.106 1.934 1.934 0 0 0 .191.877 3.268 3.268 0 0 1 .153.763 1.543 1.543 0 0 1-.591 1.3 2.389 2.389 0 0 1-1.506.458 2.424 2.424 0 0 1-1.735-.629 2.082 2.082 0 0 1-.667-1.582 3.312 3.312 0 0 1 1.906-2.936 10.254 10.254 0 0 1 5.147-1.106q7.092 0 7.092 5.071v9.571q0 .724.5.724Z" data-name="Tracé 80"></path>
      <path fill="#9d8552" d="m142.069 43.005 1.258.076a.644.644 0 0 0 .5-.724V18.376q0-.647-.458-.8l-1.258.076v-1.22h6.711v25.925q0 .763.5.724l1.259-.076v1.3h-8.5Z" data-name="Tracé 81"></path>
      <path d="M155.698 24.285q3.146-3.126 8.713-3.127a11.477 11.477 0 0 1 2.517.229q.991.229 2.4.686a13.709 13.709 0 0 0 1.716.553 6.95 6.95 0 0 0 1.6.172 22.809 22.809 0 0 0-.152 2.86q0 .8.038 1.43a1.743 1.743 0 0 0 .114.705h-1.22a6.661 6.661 0 0 0-2.326-3.828 6.278 6.278 0 0 0-4.156-1.582 5.475 5.475 0 0 0-4.9 2.764q-1.735 2.765-1.735 7.912 0 4.919 1.83 7.607a5.705 5.705 0 0 0 4.957 2.688 6.3 6.3 0 0 0 4.213-1.544 6.828 6.828 0 0 0 2.307-3.87h1.373a27.28 27.28 0 0 0-.228 3.241 11.328 11.328 0 0 0 .114 1.792h-.229a6.356 6.356 0 0 0-1.43.172q-.743.172-1.925.553-1.717.5-2.765.744a10.034 10.034 0 0 1-2.307.248 12.97 12.97 0 0 1-6.215-1.411 9.706 9.706 0 0 1-4.041-4.023 12.845 12.845 0 0 1-1.411-6.2q0-5.642 3.146-8.77" data-name="Tracé 82"></path>
      <path d="m174.973 43.005 1.258.076a.644.644 0 0 0 .5-.724V18.376q0-.647-.458-.8l-1.258.076v-1.22h6.711v25.925q0 .763.5.724l1.258-.076v1.3h-8.5Z" data-name="Tracé 83"></path>
      <path d="M203.84 43.006v1.3h-6.98a5.634 5.634 0 0 0 .19-1.678v-1.719a5.927 5.927 0 0 1-5.8 3.775 4.482 4.482 0 0 1-3.622-1.354 6.581 6.581 0 0 1-1.145-4.29v-9.037c0-.483-.166-.724-.5-.724l-1.259.077v-1.259h6.75v11.172a8.478 8.478 0 0 0 .323 2.783 1.3 1.3 0 0 0 1.354.839 2.73 2.73 0 0 0 1.812-.8 5.749 5.749 0 0 0 1.467-2.383 11.783 11.783 0 0 0 .61-3.794v-5.872q0-.762-.457-.763l-1.487.077v-1.259h6.977v14.26q0 .686.5.724Z" data-name="Tracé 84"></path>
      <path d="M215.504 42.93a2.232 2.232 0 0 0 1.678-.629 4 4 0 0 0 .877-2.058 23.026 23.026 0 0 0 .271-3.988 17.073 17.073 0 0 0-.572-5.167 2.165 2.165 0 0 0-2.173-1.659 2.775 2.775 0 0 0-2.536 1.659 9.462 9.462 0 0 0-.9 4.48v1.64q0 5.719 3.355 5.719m-10.181-26.459h6.75v14.26a4.451 4.451 0 0 1 1.83-2.192 5.579 5.579 0 0 1 3.05-.82 6 6 0 0 1 5.014 2.154q1.7 2.155 1.7 6.387 0 4.156-1.791 6.291a6.389 6.389 0 0 1-5.186 2.135 6 6 0 0 1-3.012-.61 6.8 6.8 0 0 1-1.906-1.754.832.832 0 0 0-.686-.343 1.1 1.1 0 0 0-1.03.686 4.131 4.131 0 0 0-.343 1.83h-2.631V18.374a1.175 1.175 0 0 0-.114-.533.4.4 0 0 0-.382-.229l-1.258.076Z" data-name="Tracé 85"></path>
      <path fill="#9d8552" d="m225.739 14.373-12.149 2 12.149 2Z" data-name="Tracé 86"></path>
      <path fill="#9d8552" d="m234.745 18.377 12.149-2-12.149-2Z" data-name="Tracé 87"></path>
      <path fill="#9d8552" d="M232.245 20.603h-4l2 12.149Z" data-name="Tracé 88"></path>
      <path fill="#9d8552" d="m230.242 0-2 12.149h4Z" data-name="Tracé 89"></path>
    </g>
  </g>
</svg>
